<svg width="100" height="100" viewBox="0 0 100 100" fill="none" xmlns="http://www.w3.org/2000/svg">
<rect x="25" y="31.6475" width="18.3407" height="17.8952" transform="rotate(-15 25 31.6475)" fill="#231815"/>
<rect x="55.3438" y="28" width="19.3433" height="20.6494" transform="rotate(15 55.3438 28)" fill="#231815"/>
<g filter="url(#filter0_d_11537_190872)">
<rect width="22.936" height="29.2047" transform="matrix(-0.965926 -0.258819 -0.258819 0.965926 65.3398 19.6963)" fill="#FECA11"/>
</g>
<path d="M18 38H82L78.8479 55.6823C77.8622 61.2115 74.0496 65.819 68.8025 67.8221L53.5665 73.6385C51.2697 74.5153 48.7303 74.5153 46.4335 73.6385L31.1975 67.8221C25.9504 65.819 22.1378 61.2115 21.1521 55.6823L18 38Z" fill="#C5171E"/>
<path d="M42 63H58V83.3704L42 88V63Z" fill="#C5171E"/>
<path d="M49.1969 30.2373L50.049 26.4294L50.8924 26.6554C51.2193 26.743 51.5162 26.7595 51.7831 26.7049C52.063 26.6537 52.2964 26.5411 52.4832 26.3669C52.6866 26.1832 52.8286 25.9409 52.9092 25.6402C52.9863 25.3525 52.9875 25.0866 52.9128 24.8423C52.8416 24.585 52.7023 24.3725 52.495 24.2048C52.2912 24.0241 52.0323 23.8917 51.7185 23.8076C51.2347 23.6779 50.7516 23.7027 50.2692 23.8817C49.8033 24.0512 49.3814 24.3445 49.0033 24.7618L47.5647 22.4423C48.1636 21.7759 48.8989 21.3072 49.7703 21.0362C50.6453 20.7521 51.5927 20.7467 52.6126 21.02C53.4625 21.2477 54.1671 21.6257 54.7263 22.154C55.2854 22.6822 55.6658 23.3026 55.8672 24.0153C56.0722 24.7149 56.073 25.4439 55.8698 26.2022C55.6631 26.9737 55.3293 27.592 54.8683 28.0571C54.4073 28.5222 53.8615 28.8594 53.2308 29.0688C52.6036 29.2651 51.9308 29.3441 51.2123 29.3058L52.405 28.3851L51.5505 30.8679L49.1969 30.2373ZM48.9757 35.7698C48.4527 35.6297 48.0685 35.3375 47.8231 34.8934C47.5908 34.4527 47.5413 33.984 47.6744 33.4871C47.8145 32.9641 48.0936 32.5764 48.5116 32.324C48.9462 32.062 49.425 32.0011 49.948 32.1413C50.4579 32.2779 50.8291 32.5666 51.0614 33.0072C51.3102 33.4383 51.3646 33.9153 51.2244 34.4383C51.0913 34.9352 50.8075 35.3146 50.3729 35.5766C49.9514 35.842 49.4857 35.9064 48.9757 35.7698Z" fill="white"/>
<path d="M42 50H58" stroke="white" stroke-width="3" stroke-linecap="square" stroke-linejoin="round"/>
<path d="M42 57H58" stroke="white" stroke-width="3" stroke-linecap="square" stroke-linejoin="round"/>
<defs>
<filter id="filter0_d_11537_190872" x="35.625" y="13.7598" width="29.7148" height="41.1465" filterUnits="userSpaceOnUse" color-interpolation-filters="sRGB">
<feFlood flood-opacity="0" result="BackgroundImageFix"/>
<feColorMatrix in="SourceAlpha" type="matrix" values="0 0 0 0 0 0 0 0 0 0 0 0 0 0 0 0 0 0 127 0" result="hardAlpha"/>
<feOffset dy="7"/>
<feComposite in2="hardAlpha" operator="out"/>
<feColorMatrix type="matrix" values="0 0 0 0 1 0 0 0 0 1 0 0 0 0 1 0 0 0 1 0"/>
<feBlend mode="normal" in2="BackgroundImageFix" result="effect1_dropShadow_11537_190872"/>
<feBlend mode="normal" in="SourceGraphic" in2="effect1_dropShadow_11537_190872" result="shape"/>
</filter>
</defs>
</svg>
