<svg width="36" height="36" viewBox="0 0 36 36" fill="none" xmlns="http://www.w3.org/2000/svg">
<path d="M14.5604 16.2988C14.3989 16.1639 14.5491 15.9131 14.751 15.9805L16.7294 16.6414C17.5524 16.9163 18.4474 16.9163 19.2704 16.6414L21.2487 15.9805C21.4507 15.9131 21.6009 16.1639 21.4393 16.2988L19.8566 17.6206C19.1982 18.1704 18.7507 18.9178 18.5861 19.7426L18.1905 21.7252C18.1501 21.9275 17.8497 21.9275 17.8093 21.7252L17.4136 19.7426C17.249 18.9178 16.8015 18.1704 16.1432 17.6206L14.5604 16.2988Z" fill="white"/>
<path d="M28.1897 14.6577H7.71736L6.40802 16.6117C5.60876 17.8047 5.18164 19.2088 5.18164 20.6448V23.6763C5.18164 24.6307 5.95537 25.4044 6.90976 25.4044H28.9968C29.9512 25.4044 30.7249 24.6307 30.7249 23.6763V20.6448C30.7249 19.2083 30.2983 17.8047 29.4985 16.6117L28.1892 14.6577H28.1897Z" fill="#C5171E"/>
<path d="M28.1901 14.6576H7.71777L10.0586 10.6609C10.5304 9.85473 11.3944 9.35986 12.3287 9.35986H23.5796C24.5134 9.35986 25.3775 9.85522 25.8498 10.6609L28.1906 14.6576H28.1901Z" fill="#C5171E"/>
<path d="M6.03418 24.3071H9.51545V25.6381C9.51545 26.1148 9.1281 26.5021 8.6514 26.5021H6.89824C6.42153 26.5021 6.03418 26.1148 6.03418 25.6381V24.3071Z" fill="#C5171E" stroke="#C5171E" stroke-width="1.2" stroke-linecap="round" stroke-linejoin="round"/>
<path d="M26.3926 24.3071H29.8739V25.6381C29.8739 26.1148 29.4865 26.5021 29.0098 26.5021H27.2566C26.7799 26.5021 26.3926 26.1148 26.3926 25.6381V24.3071Z" fill="#C5171E" stroke="#C5171E" stroke-width="1.2" stroke-linecap="round" stroke-linejoin="round"/>
<path d="M30.4822 14.6573H28.1895L28.8149 13.4069C28.9612 13.1143 29.2607 12.9292 29.5877 12.9292H30.4822C30.9594 12.9292 31.3462 13.3161 31.3462 13.7933C31.3462 14.2705 30.9594 14.6573 30.4822 14.6573Z" fill="#C5171E" stroke="#C5171E" stroke-width="1.2" stroke-linecap="round" stroke-linejoin="round"/>
<path d="M5.42461 14.6573H7.71731L7.09185 13.4069C6.94555 13.1143 6.64607 12.9292 6.3191 12.9292H5.42461C4.94741 12.9292 4.56055 13.3161 4.56055 13.7933C4.56055 14.2705 4.94741 14.6573 5.42461 14.6573Z" fill="#C5171E" stroke="#C5171E" stroke-width="1.2" stroke-linecap="round" stroke-linejoin="round"/>
<path d="M11.9884 21.2237H7.9666C7.4894 21.2237 7.10254 20.8369 7.10254 20.3597V19.4666C7.10254 19.1382 7.3971 18.8883 7.72113 18.9418L11.1567 19.5103C11.8303 19.6218 12.3247 20.2045 12.3247 20.8874C12.3247 21.073 12.174 21.2237 11.9884 21.2237Z" fill="white"/>
<path d="M23.9193 21.2237H27.9411C28.4183 21.2237 28.8052 20.8369 28.8052 20.3597V19.4666C28.8052 19.1382 28.5106 18.8883 28.1866 18.9418L24.751 19.5103C24.0774 19.6218 23.583 20.2045 23.583 20.8874C23.583 21.073 23.7337 21.2237 23.9193 21.2237Z" fill="white"/>
<path d="M17.502 21.8848L18.1802 22.4123L18.8584 21.8848" stroke="white" stroke-width="1.2" stroke-linecap="round"/>
</svg>
