<svg width="60" height="60" viewBox="0 0 60 60" fill="none" xmlns="http://www.w3.org/2000/svg">
<rect width="60" height="60" rx="30" fill="white"/>
<circle cx="28" cy="28" r="17" fill="#C5171E"/>
<path d="M26.0849 30.2305V27.1705H28.8262C29.152 27.1705 29.4495 27.1067 29.7187 26.9792C30.002 26.8376 30.2287 26.6321 30.3987 26.363C30.5687 26.0796 30.6537 25.7326 30.6537 25.3217C30.6537 24.9109 30.5687 24.5709 30.3987 24.3017C30.2287 24.0184 30.002 23.813 29.7187 23.6855C29.4495 23.5438 29.152 23.473 28.8262 23.473H26.0849V20.413H29.6549C30.6324 20.413 31.5108 20.6113 32.2899 21.008C33.0833 21.3905 33.7066 21.9501 34.1599 22.6867C34.6274 23.4092 34.8612 24.2876 34.8612 25.3217C34.8612 26.3417 34.6274 27.2201 34.1599 27.9567C33.7066 28.6934 33.0833 29.2601 32.2899 29.6567C31.5108 30.0392 30.6324 30.2305 29.6549 30.2305H26.0849ZM22.6424 35.543V20.413H26.8924V35.543H22.6424Z" fill="white"/>
<circle cx="42" cy="42" r="10" fill="#FECA11"/>
<path d="M37.9414 46L45.9999 37.9415" stroke="white" stroke-width="3"/>
<path d="M46 46L37.9415 37.9415" stroke="white" stroke-width="3"/>
</svg>
